<?xml version="1.0" standalone="no"?>
<!DOCTYPE svg PUBLIC "-//W3C//DTD SVG 20010904//EN"
 "http://www.w3.org/TR/2001/REC-SVG-20010904/DTD/svg10.dtd">
<svg version="1.0" xmlns="http://www.w3.org/2000/svg"
 width="1080.000000pt" height="1080.000000pt" viewBox="0 0 1080.000000 1080.000000"
 preserveAspectRatio="xMidYMid meet">
<metadata>
Created by potrace 1.14, written by Peter Selinger 2001-2017
</metadata>
<g transform="translate(0.000000,1080.000000) scale(0.100000,-0.100000)"
fill="#000000" stroke="none">
<path d="M9069 9426 c-2 -2 -35 -7 -74 -11 -114 -10 -135 -14 -240 -46 -55
-17 -118 -36 -140 -42 -22 -6 -53 -18 -70 -27 -16 -9 -79 -43 -140 -75 -60
-32 -135 -79 -165 -105 -30 -25 -86 -72 -124 -104 -38 -31 -85 -79 -105 -104
-19 -26 -49 -62 -65 -80 -41 -46 -106 -132 -106 -142 0 -5 -24 -51 -54 -104
-30 -53 -52 -96 -49 -96 3 0 0 -6 -6 -13 -9 -11 -79 -228 -85 -262 -1 -5 -5
-15 -8 -21 -4 -6 -10 -35 -12 -65 -26 -260 -26 -298 0 -519 8 -65 10 -77 34
-155 12 -38 26 -85 31 -103 12 -37 9 -41 -73 -135 -53 -60 -221 -254 -317
-366 -25 -30 -55 -64 -66 -75 -11 -12 -42 -48 -70 -81 -27 -33 -57 -67 -65
-75 -8 -9 -37 -41 -63 -72 -37 -42 -54 -55 -70 -53 -12 2 -47 6 -77 9 -30 3
-86 9 -125 13 -79 8 -135 8 -215 0 -30 -3 -86 -9 -124 -12 -38 -4 -105 -18
-150 -31 -44 -14 -88 -26 -96 -29 -8 -2 -44 -13 -79 -24 l-64 -21 -75 57 c-41
32 -80 62 -86 68 -6 5 -29 23 -51 40 -44 32 -54 40 -103 81 -33 27 -34 29 -27
83 13 111 14 127 14 196 0 39 -1 84 -4 100 -2 17 -7 59 -10 95 -4 36 -8 76
-10 90 -3 22 -33 132 -47 170 -3 8 -11 35 -17 60 -13 49 -70 169 -139 293 -43
80 -51 90 -88 130 -11 12 -45 54 -76 92 -58 73 -96 109 -161 159 -21 15 -56
45 -79 65 -22 21 -56 46 -77 57 -20 10 -39 23 -43 29 -4 5 -8 7 -8 3 0 -4 -23
6 -51 23 -103 60 -168 88 -300 129 -74 22 -145 43 -159 44 -22 4 -91 11 -200
22 -52 5 -160 5 -200 0 -19 -3 -66 -8 -105 -11 -89 -8 -97 -9 -172 -33 -35
-11 -63 -18 -63 -16 0 3 -12 -2 -28 -9 -15 -8 -48 -19 -75 -26 -26 -6 -77 -28
-115 -47 -37 -20 -101 -55 -142 -77 -70 -38 -233 -163 -304 -233 -33 -33 -206
-240 -206 -247 0 -2 -31 -61 -69 -130 -38 -70 -67 -127 -64 -127 3 0 1 -6 -4
-12 -14 -18 -92 -285 -97 -333 -22 -194 -25 -274 -12 -405 5 -47 10 -94 11
-105 1 -17 16 -101 20 -115 1 -3 4 -12 8 -20 3 -8 20 -62 37 -120 27 -88 71
-191 90 -210 3 -3 14 -25 26 -50 23 -50 25 -44 -35 -140 -12 -19 -27 -47 -33
-62 -7 -16 -16 -28 -20 -28 -4 0 -8 -5 -8 -10 0 -6 -11 -27 -23 -48 -25 -38
-60 -101 -93 -162 -11 -19 -21 -37 -25 -40 -6 -6 -35 -54 -72 -120 -73 -131
-171 -295 -179 -298 -4 -2 -8 -10 -8 -17 0 -8 -18 -42 -40 -76 -22 -34 -40
-68 -40 -75 0 -7 -4 -14 -8 -16 -4 -1 -67 -104 -139 -228 -72 -124 -139 -239
-149 -257 -11 -18 -43 -74 -73 -125 -29 -51 -78 -135 -108 -186 l-54 -92 -42
-1 c-50 -1 -101 -5 -182 -14 -33 -3 -76 -8 -95 -9 -19 -2 -66 -14 -105 -26
-38 -12 -77 -24 -85 -25 -8 -2 -16 -4 -17 -5 -2 -2 -7 -4 -13 -5 -5 -1 -11 -3
-12 -4 -2 -2 -14 -4 -28 -7 -38 -6 -343 -164 -365 -189 -5 -6 -43 -38 -84 -71
-93 -73 -144 -123 -202 -194 -68 -85 -83 -102 -99 -119 -8 -9 -31 -47 -50 -84
-68 -131 -76 -146 -87 -159 -19 -23 -107 -299 -118 -370 -6 -36 -8 -56 -21
-198 -8 -94 -8 -81 1 -175 4 -44 8 -98 10 -120 7 -73 14 -116 25 -148 33 -102
60 -193 60 -204 0 -11 114 -236 148 -292 19 -30 66 -92 97 -127 12 -12 32 -37
45 -55 69 -93 274 -259 405 -329 55 -29 119 -63 141 -75 23 -12 55 -25 70 -29
16 -4 79 -23 139 -41 115 -36 126 -38 265 -52 134 -12 230 -10 420 12 38 5
220 53 270 72 8 3 21 7 29 9 16 3 159 75 259 130 58 32 77 46 138 99 12 11 53
45 91 74 37 30 91 84 118 119 28 36 57 72 66 81 32 33 89 108 89 117 0 5 11
26 25 46 14 20 25 44 25 52 0 8 3 16 8 18 20 9 100 201 118 283 1 6 10 32 19
59 17 50 19 58 29 136 26 197 26 314 0 514 -10 74 -99 361 -115 371 -5 4 -7
10 -4 15 3 5 1 11 -5 15 -5 3 -25 37 -44 75 l-35 68 125 213 c68 117 124 213
124 215 0 1 23 39 50 83 28 45 47 81 43 81 -5 0 -3 4 3 8 6 4 38 54 71 112
133 230 148 255 155 258 5 2 8 8 8 12 0 10 260 462 270 470 4 3 9 12 12 20 3
8 63 112 132 229 69 118 127 219 128 223 2 5 31 9 66 11 34 1 62 4 62 7 0 3
19 5 43 6 94 2 180 14 264 39 48 15 116 35 150 45 34 10 67 21 73 25 5 3 89
-55 184 -130 l175 -137 -3 -46 c-2 -26 -7 -78 -11 -117 -4 -38 -8 -77 -9 -85
0 -15 11 -142 20 -210 2 -19 6 -53 8 -75 3 -22 9 -52 15 -67 6 -16 8 -28 5
-28 -4 0 -1 -7 6 -15 7 -8 10 -15 7 -15 -3 0 1 -16 9 -35 8 -19 15 -38 15 -42
2 -9 2 -9 25 -85 9 -32 21 -58 25 -58 5 0 9 -7 9 -15 0 -14 18 -53 30 -65 3
-3 25 -43 49 -90 24 -47 47 -87 50 -90 4 -3 45 -52 91 -110 47 -58 88 -107 91
-110 3 -3 28 -24 55 -47 99 -84 180 -148 199 -159 11 -6 52 -28 90 -49 39 -21
93 -50 120 -65 64 -35 342 -117 420 -124 33 -3 92 -9 130 -13 85 -8 121 -8
205 0 36 4 94 9 130 13 36 3 110 19 165 36 55 16 105 31 112 32 7 1 16 5 19 9
4 4 13 7 21 7 7 0 29 7 49 15 19 8 35 13 37 12 1 -1 16 7 32 19 17 11 64 38
105 59 84 42 119 65 170 109 20 17 56 47 80 66 118 94 266 275 345 425 32 61
66 124 75 140 9 17 22 50 29 75 6 25 13 52 16 60 2 8 15 51 28 95 13 44 27
103 30 130 28 235 28 272 1 515 -4 42 -27 135 -41 170 -8 21 -19 58 -29 105
-3 13 7 33 28 56 18 20 50 56 70 80 20 24 51 60 68 79 18 19 46 52 63 73 18
21 41 49 52 61 11 13 43 49 70 80 28 32 59 68 70 80 11 13 40 47 65 76 25 29
54 63 65 75 34 38 117 135 137 161 11 13 25 21 31 17 6 -3 31 -8 56 -9 25 -1
80 -6 121 -10 95 -11 180 -11 295 0 134 12 141 13 255 47 58 17 127 37 153 44
26 7 53 18 60 23 7 5 66 38 132 72 66 34 134 74 151 89 17 14 40 33 50 41 145
116 165 135 242 233 25 31 49 57 53 57 5 0 9 6 9 13 0 7 10 23 23 37 44 48
169 286 191 365 9 33 20 67 23 75 3 8 7 20 8 25 2 6 10 36 19 67 20 68 23 85
30 163 3 33 9 89 12 125 8 73 8 103 0 175 -3 28 -8 77 -11 110 -6 84 -11 105
-51 235 -20 63 -38 124 -41 135 -3 11 -28 63 -56 115 -28 52 -59 112 -69 132
-34 69 -208 276 -289 343 -13 12 -51 43 -84 70 -33 28 -62 53 -65 56 -8 9
-212 119 -221 119 -5 0 -9 5 -9 10 0 6 -8 10 -18 10 -10 0 -22 4 -28 10 -9 9
-60 26 -244 81 -36 11 -81 22 -100 24 -102 14 -135 16 -251 21 -69 2 -127 2
-130 0z"/>
</g>
</svg>
